<svg xmlns="http://www.w3.org/2000/svg" xmlns:xlink="http://www.w3.org/1999/xlink" width="303.874" height="82.383" viewBox="0 0 303.874 82.383">
  <defs>
    <filter id="Path_3795" x="79.074" y="21.024" width="224.8" height="52.992" filterUnits="userSpaceOnUse">
      <feOffset dx="-2" dy="4" input="SourceAlpha"/>
      <feGaussianBlur stdDeviation="2" result="blur"/>
      <feFlood flood-opacity="0.239"/>
      <feComposite operator="in" in2="blur"/>
      <feComposite in="SourceGraphic"/>
    </filter>
  </defs>
  <g id="Group_2619" data-name="Group 2619" transform="translate(-552.942 -377)">
    <path id="Union_4" data-name="Union 4" d="M9629.369,1379.506c-.131-.09-.262-.179-.39-.269a7.107,7.107,0,0,1-2.9-3.641,7.8,7.8,0,0,1-1.8-1.338c-.654-.71-1.655-2-1.088-3.067a1,1,0,0,1,.108-.179,3.857,3.857,0,0,1-.761-.844,3.378,3.378,0,0,1-.574-2.5,22.51,22.51,0,0,0-5.45-7.544l-.056-.053a49.836,49.836,0,0,1-7-8.017,27.853,27.853,0,0,1-3.837-7.893,20.232,20.232,0,0,1-.708-7.833,23.073,23.073,0,0,1,2.4-7.838,22.211,22.211,0,0,1,12.013-10.979,19.791,19.791,0,0,1,15.883.95,21.15,21.15,0,0,1,10.662,12.524c2.349,7.665-.26,14.652-2.78,21.406l0,.012c-.179.528-.371,1.042-.558,1.542-.133.356-.271.725-.4,1.088a10.791,10.791,0,0,0-.621,4.162c-.1.218-.208.439-.312.652a1.922,1.922,0,0,1,1.312-.347,3.381,3.381,0,0,1,2.175,1.156,4.736,4.736,0,0,1-.1,5.52,4.935,4.935,0,0,1-.031,4.9,9.271,9.271,0,0,1-8.141,9.677,11.038,11.038,0,0,1-7.05-1.244Zm.655-1.6c.084.044.172.133.259.179a9.853,9.853,0,0,0,5.877.933,8.012,8.012,0,0,0,5.134-2.979,6.7,6.7,0,0,0,1.351-3.113,22.139,22.139,0,0,1-5.328,2.584,20.252,20.252,0,0,1-5.9,1.2h-.524a11.784,11.784,0,0,1-2.281-.213c-.038,0-.075,0-.111-.01A10.2,10.2,0,0,0,9630.024,1377.9Zm-4.529-4.979a6.332,6.332,0,0,0,2.984,1.673,19.873,19.873,0,0,0,13.772-3.607,3.978,3.978,0,0,0,.564-.511,2.771,2.771,0,0,0,.567-2.713c-6,4.625-13.013,5.648-17.452,4.536a4.112,4.112,0,0,0-1.045-.177A5.563,5.563,0,0,0,9625.5,1372.925Zm-1.825-4.979a1.619,1.619,0,0,0,.3,1.2c.7,1.067,2.395,1.377,3.873,1.6,4.265.623,8.485-1.023,11.271-2.49a15.457,15.457,0,0,0,3.571-2.446c.911-.89,1.609-2.844.7-3.956a1.483,1.483,0,0,0-.957-.533h-.044c-.131,0-.175.044-.262.044-7.312,6.715-12.4,6.625-16.885,6.536h-1.307C9623.8,1367.9,9623.67,1367.9,9623.67,1367.945Zm-14.785-38.6c-4.916,9.753-2.138,19.1,8.749,29.4l.063.061a23.894,23.894,0,0,1,5.5,7.428,2.4,2.4,0,0,1,.771-.116h1.35a24.393,24.393,0,0,0,5.314-.308l-2.575-14.9a10.58,10.58,0,0,1-2.523-.667,6.583,6.583,0,0,1-3.653-5.246,3.563,3.563,0,0,1,1.348-3.513,2.62,2.62,0,0,1,2.48-.177c1.653.71,2.873,3.067,3.612,7.025l.174.887a7.58,7.58,0,0,0,2.4-.621c-.046-.313-.134-.669-.177-1.067-.391-2.492-.912-5.915.437-7.515a2.491,2.491,0,0,1,1.958-.89,2.876,2.876,0,0,1,2.829,2.223,7.916,7.916,0,0,1-2.566,7.782l-.655.4c.672,3.925,3.4,10.446,4.432,12.831.582-.424,1.181-.895,1.794-1.418a13.212,13.212,0,0,1,.577-6.557c.056-.153.109-.305.162-.461l.029-.082c.24-.688.489-1.4.766-2.09l.008-.017c2.523-6.761,4.909-13.146,2.734-20.172a19.324,19.324,0,0,0-9.748-11.435,18.364,18.364,0,0,0-8.368-2.039C9618.991,1318.1,9612.393,1322.409,9608.885,1329.349Zm20.834,21.566,2.567,14.451a18.905,18.905,0,0,0,2.918-1.159c.48-.25.973-.528,1.477-.844-.916-2.136-3.7-8.625-4.613-13.025A9.04,9.04,0,0,1,9629.719,1350.915Zm-5.483-7.956a2.029,2.029,0,0,0-.611,1.867,4.819,4.819,0,0,0,2.526,3.779,9.716,9.716,0,0,0,1.522.444l-.088-.444c-.826-4.492-2.09-5.469-2.567-5.692a.634.634,0,0,0-.393-.09C9624.322,1342.823,9624.147,1342.913,9624.235,1342.959Zm9.183-1.823c-.829.977-.306,4.313-.044,6.09,0,.133.044.267.044.4a6.345,6.345,0,0,0,1.828-5.736c-.262-.844-.742-.977-1.176-.977A.917.917,0,0,0,9633.418,1341.136Zm-32.857,17.319a.9.9,0,0,1,.39-1.2l4.482-2.356a.864.864,0,0,1,1.176.4.9.9,0,0,1-.393,1.2l-4.482,2.356a1.2,1.2,0,0,1-.391.09A.908.908,0,0,1,9600.561,1358.454Zm-.51-17.726-4.916-1.644a.884.884,0,0,1,.521-1.69l4.916,1.644a.889.889,0,0,1-.26,1.733A.556.556,0,0,1,9600.051,1340.729Zm52.54-1.874a.894.894,0,0,1,.611-1.113l5.091-1.467a.868.868,0,0,1,1.088.623.889.889,0,0,1-.61,1.11l-5.091,1.469a.554.554,0,0,1-.262.044A.844.844,0,0,1,9652.591,1338.855Zm-49.345-13.714c-1.784-1.823-6.049-3.646-6.092-3.646a.9.9,0,0,1-.478-1.154.872.872,0,0,1,1.13-.49c.174.087,4.613,1.956,6.659,4.046a.87.87,0,0,1,0,1.244.831.831,0,0,1-1.22,0Zm46.273-.7a.853.853,0,0,1,.306-1.2l5.222-3.113a.819.819,0,0,1,1.176.31.855.855,0,0,1-.306,1.2l-5.222,3.113a.824.824,0,0,1-.437.133A.841.841,0,0,1,9649.52,1324.443Zm-11.459-11.428a.844.844,0,0,1-.306-1.2l3.353-5.646a.809.809,0,0,1,1.174-.31.848.848,0,0,1,.3,1.2l-3.353,5.646a.8.8,0,0,1-.739.444A.72.72,0,0,1,9638.061,1313.015Zm-20.572-1.433c-.172-.579-1.784-5.692-1.784-7.692a.872.872,0,1,1,1.743,0,39.5,39.5,0,0,0,1.7,7.156.889.889,0,0,1-.567,1.113.55.55,0,0,1-.26.044A.876.876,0,0,1,9617.488,1311.582Z" transform="translate(-9041.061 -922)" stroke="#000" stroke-width="1" opacity="0.24"/>
    <g transform="matrix(1, 0, 0, 1, 552.94, 377)" filter="url(#Path_3795)">
      <path id="Path_3795-2" data-name="Path 3795" d="M39.312-19.264a23.3,23.3,0,0,1-1.232,7.728,18.576,18.576,0,0,1-3.528,6.16L38.3-1.736,34.048,2.016l-3.976-3.7A19.316,19.316,0,0,1,20.608.784a18.68,18.68,0,0,1-10-2.6,17.027,17.027,0,0,1-6.44-7.056,22.157,22.157,0,0,1-2.212-10,22.274,22.274,0,0,1,2.324-10.3,17.416,17.416,0,0,1,6.58-7.112,19.225,19.225,0,0,1,9.744-2.688,18.826,18.826,0,0,1,10.024,2.6A16.93,16.93,0,0,1,37.1-29.288,22.334,22.334,0,0,1,39.312-19.264ZM20.552-5.32a11.37,11.37,0,0,0,4.592-.952l-4.592-4.256L25.48-14.28,29.568-10.3a16.768,16.768,0,0,0,2.184-8.96,17.342,17.342,0,0,0-1.344-7,11.054,11.054,0,0,0-3.864-4.816,10.015,10.015,0,0,0-5.824-1.736,9.8,9.8,0,0,0-5.572,1.708,12.038,12.038,0,0,0-4.088,4.872,16.5,16.5,0,0,0-1.54,7.308,17.693,17.693,0,0,0,1.344,7.084A10.919,10.919,0,0,0,14.7-7.028,10.1,10.1,0,0,0,20.552-5.32ZM59.92-8.344a29.785,29.785,0,0,1-3.7,2.324,7.7,7.7,0,0,1-3.584.868,3.385,3.385,0,0,1-2.884-1.4,6.482,6.482,0,0,1-1.036-3.92V-27.16H41.44v17.024q0,5.208,2.072,8.12T50.736.9a15.539,15.539,0,0,0,5.1-1.008,21.7,21.7,0,0,0,5.376-2.8L62.44,0H67.2V-27.16H59.92ZM73.3-19.376a20.2,20.2,0,0,1,3.808-1.26,17.821,17.821,0,0,1,4.088-.532,4.276,4.276,0,0,1,3.164,1.148,4.537,4.537,0,0,1,1.2,3.22h-5.32a11.57,11.57,0,0,0-7.5,2.268,7.782,7.782,0,0,0-2.8,6.412,8.5,8.5,0,0,0,2.464,6.412Q74.872.672,79.744.672q3.752,0,7.168-3.584L88.144,0H92.9V-17.864a8.816,8.816,0,0,0-1.6-5.152A10.765,10.765,0,0,0,87.024-26.6a13.558,13.558,0,0,0-5.936-1.288,23.391,23.391,0,0,0-5.1.756,15.377,15.377,0,0,0-4.648,1.708ZM76.16-8.12a3.713,3.713,0,0,1,1.092-2.688,3.846,3.846,0,0,1,2.884-1.12h5.488v4.144A8.425,8.425,0,0,1,79.632-5.1a3.551,3.551,0,0,1-2.492-.9A2.79,2.79,0,0,1,76.16-8.12Zm27.272-10.7a29.785,29.785,0,0,1,3.7-2.324,7.7,7.7,0,0,1,3.584-.868,3.385,3.385,0,0,1,2.884,1.4,6.482,6.482,0,0,1,1.036,3.92V0h7.28V-17.024q0-5.208-2.072-8.12t-7.224-2.912a15.539,15.539,0,0,0-5.1,1.008,21.7,21.7,0,0,0-5.376,2.8l-1.232-2.912h-4.76V0h7.28ZM133.5-27.1v-7.728l-7.224,1.288v6.44h-3.64v5.6h3.64V-8.68a9.23,9.23,0,0,0,2.856,7.224q2.856,2.576,7.952,2.576a10.364,10.364,0,0,0,3-.5A7.57,7.57,0,0,0,142.576-.56l-2.128-5.264a6.809,6.809,0,0,1-2.968.728,3.494,3.494,0,0,1-2.94-1.344A5.621,5.621,0,0,1,133.5-9.968V-21.5h7.168l-2.24-5.6Zm28.56,18.76a29.786,29.786,0,0,1-3.7,2.324,7.7,7.7,0,0,1-3.584.868,3.385,3.385,0,0,1-2.884-1.4,6.482,6.482,0,0,1-1.036-3.92V-27.16h-7.28v17.024q0,5.208,2.072,8.12T152.88.9a15.539,15.539,0,0,0,5.1-1.008,21.7,21.7,0,0,0,5.376-2.8L164.584,0h4.76V-27.16h-7.28Zm43.96-19.712q4.648,0,6.692,2.492t2.044,7.42V0h-7.28V-16.688a7.81,7.81,0,0,0-.812-3.976,2.762,2.762,0,0,0-2.548-1.344,6.2,6.2,0,0,0-3.08.784,40.157,40.157,0,0,0-3.584,2.352V0h-7.28V-16.688a7.81,7.81,0,0,0-.812-3.976,2.762,2.762,0,0,0-2.548-1.344,6.2,6.2,0,0,0-3.08.784,39.482,39.482,0,0,0-3.64,2.408V0h-7.28V-27.16h4.76l1.232,2.912a22.789,22.789,0,0,1,5.208-2.8,13.693,13.693,0,0,1,4.7-1.008q5.544,0,7.5,3.7a23.6,23.6,0,0,1,5.152-2.716A13.571,13.571,0,0,1,206.024-28.056Z" transform="translate(85.11 62)" fill="#fff"/>
    </g>
    <g id="Illustrated_bulb_svg" data-name="Illustrated bulb svg" transform="translate(558 381)">
      <g id="Group_1409" data-name="Group 1409" transform="translate(9.952 11.599)">
        <g id="Group_1408" data-name="Group 1408" transform="translate(15.526 21.679)">
          <g id="Group_1407" data-name="Group 1407">
            <path id="Path_3642" data-name="Path 3642" d="M95.007,137.652l.844-.211a20.678,20.678,0,0,0,6.285-2.784l.548-.422-.3-.633c-.042-.084-3.88-8.436-4.682-13.033l.633-.38a7.414,7.414,0,0,0,2.488-7.381,2.778,2.778,0,0,0-2.742-2.109,2.432,2.432,0,0,0-1.9.844c-1.308,1.518-.8,4.766-.422,7.128.042.38.127.717.169,1.012a7.519,7.519,0,0,1-2.32.59l-.169-.844c-.717-3.754-1.9-5.989-3.5-6.664a2.58,2.58,0,0,0-2.4.169,3.352,3.352,0,0,0-1.308,3.332,6.254,6.254,0,0,0,3.543,4.977,10.46,10.46,0,0,0,2.446.633Zm5.567-3.965a17.494,17.494,0,0,1-4.26,1.9l-2.488-13.708a8.959,8.959,0,0,0,2.278-.548C96.989,125.5,99.689,131.662,100.574,133.687ZM88.891,114.2a.627.627,0,0,1,.38.084c.464.211,1.687,1.139,2.488,5.4l.084.422a9.7,9.7,0,0,1-1.476-.422,4.569,4.569,0,0,1-2.446-3.585,1.893,1.893,0,0,1,.59-1.771C88.427,114.285,88.6,114.2,88.891,114.2Zm9.153-1.814h0c.422,0,.886.127,1.139.928a5.934,5.934,0,0,1-1.771,5.441c0-.127-.042-.253-.042-.38-.253-1.687-.759-4.85.042-5.778A.906.906,0,0,1,98.044,112.387Z" transform="translate(-86.2 -110.7)" fill="#fff"/>
          </g>
        </g>
        <g id="Group_1400" data-name="Group 1400" transform="translate(15.583 40.991)">
          <g id="Group_1399" data-name="Group 1399">
            <path id="Path_3638" data-name="Path 3638" d="M78.429,168.976a21.779,21.779,0,0,0,9.87-2.7,16.337,16.337,0,0,0,3.838-2.615c1.6-1.518,2.278-4.3.8-6.074a3.3,3.3,0,0,0-2.109-1.1,1.823,1.823,0,0,0-1.476.506c-6.58,5.9-11.177,5.863-15.184,5.778H72.861a1.861,1.861,0,0,0-1.771.97,2.926,2.926,0,0,0,.38,2.868c1.139,1.687,3.5,2.025,4.893,2.235A16.99,16.99,0,0,0,78.429,168.976ZM90.7,158.221h.042a1.449,1.449,0,0,1,.928.506c.886,1.054.211,2.91-.675,3.754a15.044,15.044,0,0,1-3.459,2.32c-2.7,1.392-6.791,2.952-10.924,2.362-1.434-.211-3.079-.506-3.754-1.518a1.509,1.509,0,0,1-.3-1.139c0-.042.127-.042.253-.042h1.265c4.344.084,9.279.169,16.365-6.2C90.534,158.263,90.576,158.221,90.7,158.221Z" transform="translate(-70.86 -156.485)" fill="#f9d217"/>
          </g>
        </g>
        <g id="Group_1402" data-name="Group 1402" transform="translate(16.663 46.311)">
          <g id="Group_1401" data-name="Group 1401">
            <path id="Path_3639" data-name="Path 3639" d="M79.18,180.108h.506c5.23-.169,10.924-3.206,12.316-4.766a4.571,4.571,0,0,0,.3-5.483l-.506-.759-.717.591c-5.567,4.555-12.358,5.61-16.323,4.682-1.139-.253-2.531-.464-3.037.506-.548,1.012.422,2.235,1.054,2.91A8.847,8.847,0,0,0,79.18,180.108Zm12.105-8.478a2.586,2.586,0,0,1-.548,2.573c-1.054,1.181-6.285,4.007-11.093,4.176a7.4,7.4,0,0,1-5.694-1.856,5.22,5.22,0,0,1-.59-.759,4.071,4.071,0,0,1,1.012.169C78.674,176.987,85.464,176.017,91.285,171.631Z" transform="translate(-71.553 -169.1)" fill="#f9d217"/>
          </g>
        </g>
        <g id="Group_1404" data-name="Group 1404" transform="translate(19.44 50.36)">
          <g id="Group_1403" data-name="Group 1403">
            <path id="Path_3640" data-name="Path 3640" d="M81.647,189.624a10.02,10.02,0,0,0,1.645-.127,9.379,9.379,0,0,0,6.074-3.416,9.014,9.014,0,0,0,1.814-5.821l-.127-1.561-1.265.928a19.168,19.168,0,0,1-15.521,3.8l-1.181-.3.127,1.181c0,.169.253,1.856,2.868,3.754l.38.253A9.9,9.9,0,0,0,81.647,189.624Zm7.676-7.55a6.268,6.268,0,0,1-1.308,2.952,7.8,7.8,0,0,1-4.977,2.826,9.7,9.7,0,0,1-5.694-.886c-.084-.042-.169-.127-.253-.169a9.8,9.8,0,0,1-1.476-1.35A21.433,21.433,0,0,0,89.324,182.074Z" transform="translate(-73.085 -178.7)" fill="#f9d217"/>
          </g>
        </g>
      </g>
      <g id="Group_1410" data-name="Group 1410" transform="translate(54.239 30.534)">
        <path id="Path_3643" data-name="Path 3643" d="M35.057,104.934a.535.535,0,0,0,.253-.042l4.935-1.392a.855.855,0,1,0-.464-1.645l-4.935,1.392a.843.843,0,0,0-.59,1.054A.813.813,0,0,0,35.057,104.934Z" transform="translate(-34.223 -101.823)" fill="#fff"/>
      </g>
      <g id="Group_1411" data-name="Group 1411" transform="translate(52.165 13.223)">
        <path id="Path_3644" data-name="Path 3644" d="M46.839,72.535a.814.814,0,0,0,.422-.127l5.061-2.952a.832.832,0,1,0-.844-1.434l-5.061,2.952a.8.8,0,0,0-.3,1.139A.816.816,0,0,0,46.839,72.535Z" transform="translate(-45.992 -67.892)" fill="#fff"/>
      </g>
      <g id="Group_1412" data-name="Group 1412" transform="translate(39.824 -1.316)">
        <path id="Path_3645" data-name="Path 3645" d="M85.139,42.839a.783.783,0,0,0,.717-.422L89.1,37.061a.832.832,0,1,0-1.434-.844l-3.248,5.357a.794.794,0,0,0,.3,1.139A.713.713,0,0,0,85.139,42.839Z" transform="translate(-84.292 -35.792)" fill="#fff"/>
      </g>
      <g id="Group_1413" data-name="Group 1413" transform="translate(18.552 -4)">
        <path id="Path_3646" data-name="Path 3646" d="M136.245,40.531a.535.535,0,0,0,.253-.042.837.837,0,0,0,.548-1.054,36.974,36.974,0,0,1-1.645-6.791.844.844,0,1,0-1.687,0c0,1.9,1.561,6.748,1.729,7.3A.847.847,0,0,0,136.245,40.531Z" transform="translate(-133.714 -31.8)" fill="#fff"/>
      </g>
      <g id="Group_1414" data-name="Group 1414" transform="translate(-0.98 12.927)">
        <path id="Path_3647" data-name="Path 3647" d="M174.018,74.892a.833.833,0,0,0,.59-.253.815.815,0,0,0,0-1.181c-1.982-1.982-6.285-3.754-6.453-3.838a.842.842,0,1,0-.633,1.561c.042,0,4.176,1.729,5.9,3.459A.833.833,0,0,0,174.018,74.892Z" transform="translate(-167 -69.562)" fill="#fff"/>
      </g>
      <g id="Group_1415" data-name="Group 1415" transform="translate(-3 30.592)">
        <path id="Path_3648" data-name="Path 3648" d="M176.018,117.056a.847.847,0,0,0,.8-.59.82.82,0,0,0-.548-1.054L171.5,113.85a.837.837,0,0,0-1.054.548.82.82,0,0,0,.548,1.054l4.766,1.561A.535.535,0,0,0,176.018,117.056Z" transform="translate(-170.414 -113.814)" fill="#fff"/>
      </g>
      <g id="Group_1416" data-name="Group 1416" transform="translate(2.784 47.245)">
        <path id="Path_3649" data-name="Path 3649" d="M163.235,150.114a1.232,1.232,0,0,0,.38-.084l4.344-2.235a.849.849,0,0,0-.759-1.518l-4.344,2.235a.845.845,0,0,0-.38,1.139A.889.889,0,0,0,163.235,150.114Z" transform="translate(-162.385 -146.185)" fill="#fff"/>
      </g>
      <g id="Group_2361" data-name="Group 2361" transform="matrix(0.999, -0.035, 0.035, 0.999, -429.698, -1741.097)">
        <path id="Subtraction_6" data-name="Subtraction 6" d="M-1107.6,48.35v0a20.243,20.243,0,0,0-5.042-6.307l-.055-.049a45.885,45.885,0,0,1-6.781-7.191,24.29,24.29,0,0,1-3.721-7.08,16.843,16.843,0,0,1-.684-7.027,19.582,19.582,0,0,1,2.329-7.031,21.023,21.023,0,0,1,11.641-9.85,20.731,20.731,0,0,1,6.644-1.1,20.58,20.58,0,0,1,8.751,1.954A19.446,19.446,0,0,1-1084.188,15.9c2.276,6.875-.252,13.142-2.7,19.2l0,.008c-.172.473-.359.937-.541,1.386-.13.321-.263.651-.387.974a9.542,9.542,0,0,0-.5,4.816l-1.74-.486a10.642,10.642,0,0,1,.679-4.9q.094-.246.188-.5c.233-.618.474-1.256.74-1.865l.008-.019c2.446-6.064,4.756-11.791,2.65-18.093a17.784,17.784,0,0,0-9.448-10.256,18.967,18.967,0,0,0-8.11-1.829,19.107,19.107,0,0,0-16.69,10.092c-4.766,8.75-2.072,17.131,8.478,26.374l.064.057a21.555,21.555,0,0,1,4.858,5.809l-.963,1.67Z" transform="translate(1499.421 1763.599)" fill="#f9d217" stroke="#f9d217" stroke-linecap="round" stroke-width="3"/>
        <path id="Path_3671" data-name="Path 3671" d="M1518.488,1810.1s2.285,4.058.55,5.415-2.584.98-3.414-.378S1518.488,1810.1,1518.488,1810.1Z" transform="translate(-1124)" fill="#f9d217"/>
        <path id="Path_3672" data-name="Path 3672" d="M1532.036,1806.585s.364,4.6,2.252,4.839,3.4-.927,2.849-3.4S1532.036,1806.585,1532.036,1806.585Z" transform="translate(-1124)" fill="#f9d217"/>
      </g>
    </g>
  </g>
</svg>
